<svg xmlns="http://www.w3.org/2000/svg" xmlns:xlink="http://www.w3.org/1999/xlink" zoomAndPan="magnify" viewBox="120 155 135 75" preserveAspectRatio="xMidYMid meet" version="1.0"><defs><g></g></defs><g fill="#2E2A24" fill-opacity="1"><g transform="translate(129.166875, 191.168908)"><g><path d="M 0.78125 -4.546875 C 0.78125 -5.617188 1.03125 -6.582031 1.53125 -7.4375 C 2.03125 -8.300781 2.675781 -9.082031 3.46875 -9.78125 C 4.257812 -10.488281 5.097656 -11.128906 5.984375 -11.703125 C 6.867188 -12.285156 7.703125 -12.820312 8.484375 -13.3125 C 9.273438 -13.8125 9.921875 -14.285156 10.421875 -14.734375 C 10.929688 -15.191406 11.1875 -15.644531 11.1875 -16.09375 C 11.1875 -16.332031 11.125 -16.507812 11 -16.625 C 10.875 -16.738281 10.726562 -16.796875 10.5625 -16.796875 C 10.25 -16.796875 9.957031 -16.65625 9.6875 -16.375 C 9.414062 -16.101562 9.148438 -15.785156 8.890625 -15.421875 C 8.628906 -15.066406 8.347656 -14.75 8.046875 -14.46875 C 7.742188 -14.195312 7.410156 -14.0625 7.046875 -14.0625 C 6.679688 -14.0625 6.457031 -14.207031 6.375 -14.5 C 6.300781 -14.800781 6.328125 -15.113281 6.453125 -15.4375 C 6.847656 -16.476562 7.207031 -17.445312 7.53125 -18.34375 C 7.863281 -19.238281 8.191406 -20.101562 8.515625 -20.9375 C 8.835938 -21.78125 9.164062 -22.648438 9.5 -23.546875 C 9.84375 -24.453125 10.222656 -25.441406 10.640625 -26.515625 L 10.890625 -26.515625 L 19.21875 -4.546875 C 19.789062 -3.128906 20.328125 -2.0625 20.828125 -1.34375 C 21.328125 -0.625 21.976562 -0.265625 22.78125 -0.265625 L 22.78125 0 L 14.25 0 L 14.25 -0.265625 C 15.164062 -0.265625 15.863281 -0.382812 16.34375 -0.625 C 16.820312 -0.863281 17.128906 -1.195312 17.265625 -1.625 C 17.398438 -2.0625 17.414062 -2.566406 17.3125 -3.140625 C 17.207031 -3.710938 17.035156 -4.328125 16.796875 -4.984375 L 13.578125 -13.5 C 13.679688 -12.664062 13.734375 -11.625 13.734375 -10.375 C 13.734375 -8.28125 13.40625 -6.40625 12.75 -4.75 C 12.101562 -3.101562 11.164062 -1.8125 9.9375 -0.875 C 8.71875 0.0507812 7.242188 0.515625 5.515625 0.515625 C 4.503906 0.515625 3.644531 0.28125 2.9375 -0.1875 C 2.238281 -0.65625 1.703125 -1.273438 1.328125 -2.046875 C 0.960938 -2.816406 0.78125 -3.648438 0.78125 -4.546875 Z M 2.984375 -5.046875 C 2.984375 -3.828125 3.347656 -2.800781 4.078125 -1.96875 C 4.804688 -1.144531 5.804688 -0.734375 7.078125 -0.734375 C 8.160156 -0.734375 9.101562 -1.023438 9.90625 -1.609375 C 10.707031 -2.203125 11.367188 -2.972656 11.890625 -3.921875 C 12.421875 -4.878906 12.816406 -5.921875 13.078125 -7.046875 C 13.335938 -8.171875 13.46875 -9.265625 13.46875 -10.328125 C 13.46875 -11.296875 13.4375 -12.160156 13.375 -12.921875 C 13.3125 -13.679688 13.160156 -14.441406 12.921875 -15.203125 L 9.78125 -23.5 L 6.78125 -15.546875 C 6.613281 -15.097656 6.566406 -14.78125 6.640625 -14.59375 C 6.722656 -14.414062 6.867188 -14.328125 7.078125 -14.328125 C 7.367188 -14.328125 7.648438 -14.460938 7.921875 -14.734375 C 8.203125 -15.015625 8.476562 -15.332031 8.75 -15.6875 C 9.03125 -16.039062 9.320312 -16.359375 9.625 -16.640625 C 9.9375 -16.921875 10.265625 -17.0625 10.609375 -17.0625 C 10.847656 -17.0625 11.050781 -16.976562 11.21875 -16.8125 C 11.382812 -16.644531 11.46875 -16.390625 11.46875 -16.046875 C 11.46875 -15.472656 11.265625 -14.945312 10.859375 -14.46875 C 10.453125 -13.988281 9.925781 -13.523438 9.28125 -13.078125 C 8.632812 -12.628906 7.945312 -12.148438 7.21875 -11.640625 C 6.5 -11.140625 5.816406 -10.582031 5.171875 -9.96875 C 4.535156 -9.351562 4.007812 -8.644531 3.59375 -7.84375 C 3.1875 -7.050781 2.984375 -6.117188 2.984375 -5.046875 Z M 2.984375 -5.046875 "></path></g></g></g><g fill="#2E2A24" fill-opacity="1"><g transform="translate(151.104054, 191.168908)"><g><path d="M 0.515625 -18.140625 L 0.515625 -18.40625 L 5.140625 -18.40625 C 5.140625 -18.300781 5.140625 -17.992188 5.140625 -17.484375 C 5.140625 -16.972656 5.140625 -16.335938 5.140625 -15.578125 C 5.140625 -14.828125 5.144531 -14.015625 5.15625 -13.140625 C 5.164062 -12.265625 5.171875 -11.394531 5.171875 -10.53125 C 5.171875 -9.664062 5.171875 -8.875 5.171875 -8.15625 C 5.171875 -7.445312 5.171875 -6.878906 5.171875 -6.453125 C 5.171875 -6.035156 5.171875 -5.828125 5.171875 -5.828125 C 5.171875 -4.660156 5.3125 -3.703125 5.59375 -2.953125 C 5.882812 -2.210938 6.257812 -1.628906 6.71875 -1.203125 C 7.175781 -0.785156 7.671875 -0.472656 8.203125 -0.265625 C 8.734375 -0.0664062 9.25 0.0507812 9.75 0.09375 C 10.25 0.132812 10.675781 0.15625 11.03125 0.15625 C 11.6875 0.15625 12.363281 0.0859375 13.0625 -0.046875 C 13.769531 -0.191406 14.429688 -0.375 15.046875 -0.59375 L 15.046875 -11.1875 C 15.046875 -12.894531 15.003906 -14.253906 14.921875 -15.265625 C 14.835938 -16.285156 14.625 -17.019531 14.28125 -17.46875 C 13.945312 -17.914062 13.40625 -18.140625 12.65625 -18.140625 L 12.65625 -18.40625 L 17.296875 -18.40625 L 17.296875 -7.234375 C 17.296875 -5.535156 17.335938 -4.171875 17.421875 -3.140625 C 17.503906 -2.117188 17.710938 -1.382812 18.046875 -0.9375 C 18.390625 -0.488281 18.9375 -0.265625 19.6875 -0.265625 L 19.6875 0 L 16.71875 0 C 16.007812 0 15.21875 0.0390625 14.34375 0.125 C 13.46875 0.21875 12.625 0.304688 11.8125 0.390625 C 11.007812 0.472656 10.359375 0.515625 9.859375 0.515625 C 9.390625 0.515625 8.851562 0.484375 8.25 0.421875 C 7.65625 0.367188 7.046875 0.238281 6.421875 0.03125 C 5.796875 -0.164062 5.21875 -0.472656 4.6875 -0.890625 C 4.164062 -1.304688 3.738281 -1.867188 3.40625 -2.578125 C 3.070312 -3.285156 2.90625 -4.1875 2.90625 -5.28125 L 2.90625 -11.1875 C 2.90625 -12.894531 2.863281 -14.253906 2.78125 -15.265625 C 2.695312 -16.285156 2.484375 -17.019531 2.140625 -17.46875 C 1.804688 -17.914062 1.265625 -18.140625 0.515625 -18.140625 Z M 0.515625 -18.140625 "></path></g></g></g><g fill="#2E2A24" fill-opacity="1"><g transform="translate(170.468006, 191.168908)"><g><path d="M 7.796875 0 L 0.78125 0 L 0.78125 -0.265625 C 1.519531 -0.265625 2.054688 -0.488281 2.390625 -0.9375 C 2.734375 -1.382812 2.945312 -2.117188 3.03125 -3.140625 C 3.125 -4.171875 3.171875 -5.535156 3.171875 -7.234375 L 3.171875 -11.1875 C 3.171875 -12.894531 3.125 -14.253906 3.03125 -15.265625 C 2.945312 -16.285156 2.734375 -17.019531 2.390625 -17.46875 C 2.054688 -17.914062 1.519531 -18.140625 0.78125 -18.140625 L 0.78125 -18.40625 L 3.796875 -18.40625 C 5.285156 -18.40625 6.835938 -18.488281 8.453125 -18.65625 C 10.066406 -18.832031 11.59375 -18.921875 13.03125 -18.921875 C 14.1875 -18.921875 15.144531 -18.644531 15.90625 -18.09375 C 16.675781 -17.539062 17.0625 -16.757812 17.0625 -15.75 C 17.0625 -15.0625 16.875 -14.46875 16.5 -13.96875 C 16.125 -13.476562 15.5625 -13.234375 14.8125 -13.234375 C 14.457031 -13.234375 14.128906 -13.34375 13.828125 -13.5625 C 13.535156 -13.78125 13.390625 -14.070312 13.390625 -14.4375 C 13.753906 -14.445312 14.078125 -14.640625 14.359375 -15.015625 C 14.648438 -15.390625 14.796875 -15.84375 14.796875 -16.375 C 14.796875 -16.988281 14.566406 -17.503906 14.109375 -17.921875 C 13.648438 -18.347656 12.953125 -18.5625 12.015625 -18.5625 C 11.609375 -18.5625 11.109375 -18.539062 10.515625 -18.5 C 9.921875 -18.46875 9.300781 -18.414062 8.65625 -18.34375 C 8.019531 -18.28125 7.410156 -18.203125 6.828125 -18.109375 C 6.242188 -18.023438 5.769531 -17.925781 5.40625 -17.8125 L 5.40625 -7.234375 C 5.40625 -5.535156 5.445312 -4.171875 5.53125 -3.140625 C 5.625 -2.117188 5.835938 -1.382812 6.171875 -0.9375 C 6.515625 -0.488281 7.054688 -0.265625 7.796875 -0.265625 Z M 7.796875 0 "></path></g></g></g><g fill="#2E2A24" fill-opacity="1"><g transform="translate(187.20674, 191.168908)"><g><path d="M 10.484375 0.515625 C 9.078125 0.515625 7.820312 0.265625 6.71875 -0.234375 C 5.613281 -0.734375 4.679688 -1.429688 3.921875 -2.328125 C 3.160156 -3.222656 2.578125 -4.257812 2.171875 -5.4375 C 1.765625 -6.613281 1.5625 -7.867188 1.5625 -9.203125 C 1.5625 -10.535156 1.765625 -11.789062 2.171875 -12.96875 C 2.578125 -14.144531 3.160156 -15.179688 3.921875 -16.078125 C 4.679688 -16.972656 5.613281 -17.671875 6.71875 -18.171875 C 7.820312 -18.671875 9.078125 -18.921875 10.484375 -18.921875 C 11.878906 -18.921875 13.078125 -18.738281 14.078125 -18.375 C 15.085938 -18.019531 15.914062 -17.546875 16.5625 -16.953125 C 17.207031 -16.359375 17.679688 -15.710938 17.984375 -15.015625 C 18.285156 -14.328125 18.4375 -13.65625 18.4375 -13 C 18.414062 -11.53125 18 -10.378906 17.1875 -9.546875 C 16.375 -8.710938 15.222656 -8.296875 13.734375 -8.296875 C 12.691406 -8.296875 11.800781 -8.410156 11.0625 -8.640625 C 10.320312 -8.878906 9.671875 -9.148438 9.109375 -9.453125 C 8.546875 -9.753906 8 -10.019531 7.46875 -10.25 C 6.945312 -10.488281 6.363281 -10.609375 5.71875 -10.609375 C 5.40625 -10.609375 5.125 -10.523438 4.875 -10.359375 C 4.625 -10.191406 4.484375 -10.054688 4.453125 -9.953125 L 4.34375 -9.984375 C 4.34375 -10.523438 4.570312 -11.003906 5.03125 -11.421875 C 5.488281 -11.847656 6.171875 -12.0625 7.078125 -12.0625 C 7.753906 -12.0625 8.394531 -11.890625 9 -11.546875 C 9.601562 -11.203125 10.179688 -10.796875 10.734375 -10.328125 C 11.285156 -9.867188 11.820312 -9.46875 12.34375 -9.125 C 12.863281 -8.78125 13.382812 -8.609375 13.90625 -8.609375 C 14.550781 -8.609375 15.082031 -8.847656 15.5 -9.328125 C 15.914062 -9.816406 16.203125 -10.4375 16.359375 -11.1875 C 16.523438 -11.945312 16.539062 -12.753906 16.40625 -13.609375 C 16.269531 -14.460938 15.96875 -15.265625 15.5 -16.015625 C 15.03125 -16.773438 14.378906 -17.394531 13.546875 -17.875 C 12.710938 -18.363281 11.671875 -18.609375 10.421875 -18.609375 C 9.367188 -18.609375 8.457031 -18.40625 7.6875 -18 C 6.925781 -17.59375 6.296875 -17.050781 5.796875 -16.375 C 5.296875 -15.695312 4.894531 -14.953125 4.59375 -14.140625 C 4.289062 -13.328125 4.078125 -12.492188 3.953125 -11.640625 C 3.828125 -10.796875 3.773438 -10.007812 3.796875 -9.28125 C 3.816406 -8.070312 4 -6.925781 4.34375 -5.84375 C 4.6875 -4.769531 5.179688 -3.820312 5.828125 -3 C 6.484375 -2.175781 7.28125 -1.53125 8.21875 -1.0625 C 9.15625 -0.59375 10.21875 -0.359375 11.40625 -0.359375 C 11.925781 -0.359375 12.507812 -0.4375 13.15625 -0.59375 C 13.800781 -0.75 14.445312 -1 15.09375 -1.34375 C 15.738281 -1.695312 16.332031 -2.160156 16.875 -2.734375 C 17.425781 -3.304688 17.859375 -4.007812 18.171875 -4.84375 L 18.53125 -4.6875 C 17.863281 -3.132812 16.835938 -1.878906 15.453125 -0.921875 C 14.078125 0.0351562 12.421875 0.515625 10.484375 0.515625 Z M 10.484375 0.515625 "></path></g></g></g><g fill="#2E2A24" fill-opacity="1"><g transform="translate(206.466721, 191.168908)"><g><path d="M 1.5625 -1.0625 L 1.5625 -4.234375 L 1.8125 -4.234375 C 1.8125 -3.921875 1.945312 -3.515625 2.21875 -3.015625 C 2.488281 -2.515625 2.890625 -2.007812 3.421875 -1.5 C 3.960938 -0.988281 4.625 -0.5625 5.40625 -0.21875 C 6.1875 0.113281 7.085938 0.273438 8.109375 0.265625 C 9.066406 0.242188 9.972656 0.0507812 10.828125 -0.3125 C 11.679688 -0.675781 12.378906 -1.203125 12.921875 -1.890625 C 13.472656 -2.585938 13.75 -3.441406 13.75 -4.453125 C 13.75 -5.222656 13.535156 -5.851562 13.109375 -6.34375 C 12.691406 -6.832031 12.128906 -7.234375 11.421875 -7.546875 C 10.722656 -7.859375 9.945312 -8.132812 9.09375 -8.375 C 8.25 -8.613281 7.40625 -8.867188 6.5625 -9.140625 C 5.71875 -9.421875 4.945312 -9.769531 4.25 -10.1875 C 3.550781 -10.601562 2.988281 -11.148438 2.5625 -11.828125 C 2.132812 -12.503906 1.921875 -13.363281 1.921875 -14.40625 C 1.921875 -15.21875 2.160156 -15.96875 2.640625 -16.65625 C 3.117188 -17.34375 3.832031 -17.890625 4.78125 -18.296875 C 5.738281 -18.710938 6.914062 -18.921875 8.3125 -18.921875 C 9.40625 -18.921875 10.359375 -18.828125 11.171875 -18.640625 C 11.992188 -18.460938 12.664062 -18.253906 13.1875 -18.015625 C 13.71875 -17.773438 14.113281 -17.5625 14.375 -17.375 C 14.632812 -17.195312 14.765625 -17.109375 14.765625 -17.109375 L 14.765625 -14.046875 L 14.65625 -14.046875 C 14.15625 -15.535156 13.363281 -16.675781 12.28125 -17.46875 C 11.195312 -18.269531 9.960938 -18.671875 8.578125 -18.671875 C 7.484375 -18.671875 6.550781 -18.492188 5.78125 -18.140625 C 5.007812 -17.785156 4.425781 -17.320312 4.03125 -16.75 C 3.632812 -16.175781 3.4375 -15.554688 3.4375 -14.890625 C 3.4375 -14.128906 3.660156 -13.5 4.109375 -13 C 4.554688 -12.507812 5.148438 -12.101562 5.890625 -11.78125 C 6.628906 -11.46875 7.4375 -11.179688 8.3125 -10.921875 C 9.195312 -10.660156 10.082031 -10.378906 10.96875 -10.078125 C 11.851562 -9.785156 12.664062 -9.421875 13.40625 -8.984375 C 14.144531 -8.554688 14.738281 -8.003906 15.1875 -7.328125 C 15.632812 -6.648438 15.859375 -5.800781 15.859375 -4.78125 C 15.859375 -3.832031 15.644531 -3.019531 15.21875 -2.34375 C 14.800781 -1.664062 14.226562 -1.117188 13.5 -0.703125 C 12.769531 -0.285156 11.941406 0.0195312 11.015625 0.21875 C 10.085938 0.414062 9.117188 0.515625 8.109375 0.515625 C 5.390625 0.515625 3.207031 -0.0078125 1.5625 -1.0625 Z M 1.5625 -1.0625 "></path></g></g></g><g fill="#2E2A24" fill-opacity="1"><g transform="translate(223.049507, 191.168908)"><g><path d="M 0.78125 -4.546875 C 0.78125 -5.617188 1.03125 -6.582031 1.53125 -7.4375 C 2.03125 -8.300781 2.675781 -9.082031 3.46875 -9.78125 C 4.257812 -10.488281 5.097656 -11.128906 5.984375 -11.703125 C 6.867188 -12.285156 7.703125 -12.820312 8.484375 -13.3125 C 9.273438 -13.8125 9.921875 -14.285156 10.421875 -14.734375 C 10.929688 -15.191406 11.1875 -15.644531 11.1875 -16.09375 C 11.1875 -16.332031 11.125 -16.507812 11 -16.625 C 10.875 -16.738281 10.726562 -16.796875 10.5625 -16.796875 C 10.25 -16.796875 9.957031 -16.65625 9.6875 -16.375 C 9.414062 -16.101562 9.148438 -15.785156 8.890625 -15.421875 C 8.628906 -15.066406 8.347656 -14.75 8.046875 -14.46875 C 7.742188 -14.195312 7.410156 -14.0625 7.046875 -14.0625 C 6.679688 -14.0625 6.457031 -14.207031 6.375 -14.5 C 6.300781 -14.800781 6.328125 -15.113281 6.453125 -15.4375 C 6.847656 -16.476562 7.207031 -17.445312 7.53125 -18.34375 C 7.863281 -19.238281 8.191406 -20.101562 8.515625 -20.9375 C 8.835938 -21.78125 9.164062 -22.648438 9.5 -23.546875 C 9.84375 -24.453125 10.222656 -25.441406 10.640625 -26.515625 L 10.890625 -26.515625 L 19.21875 -4.546875 C 19.789062 -3.128906 20.328125 -2.0625 20.828125 -1.34375 C 21.328125 -0.625 21.976562 -0.265625 22.78125 -0.265625 L 22.78125 0 L 14.25 0 L 14.25 -0.265625 C 15.164062 -0.265625 15.863281 -0.382812 16.34375 -0.625 C 16.820312 -0.863281 17.128906 -1.195312 17.265625 -1.625 C 17.398438 -2.0625 17.414062 -2.566406 17.3125 -3.140625 C 17.207031 -3.710938 17.035156 -4.328125 16.796875 -4.984375 L 13.578125 -13.5 C 13.679688 -12.664062 13.734375 -11.625 13.734375 -10.375 C 13.734375 -8.28125 13.40625 -6.40625 12.75 -4.75 C 12.101562 -3.101562 11.164062 -1.8125 9.9375 -0.875 C 8.71875 0.0507812 7.242188 0.515625 5.515625 0.515625 C 4.503906 0.515625 3.644531 0.28125 2.9375 -0.1875 C 2.238281 -0.65625 1.703125 -1.273438 1.328125 -2.046875 C 0.960938 -2.816406 0.78125 -3.648438 0.78125 -4.546875 Z M 2.984375 -5.046875 C 2.984375 -3.828125 3.347656 -2.800781 4.078125 -1.96875 C 4.804688 -1.144531 5.804688 -0.734375 7.078125 -0.734375 C 8.160156 -0.734375 9.101562 -1.023438 9.90625 -1.609375 C 10.707031 -2.203125 11.367188 -2.972656 11.890625 -3.921875 C 12.421875 -4.878906 12.816406 -5.921875 13.078125 -7.046875 C 13.335938 -8.171875 13.46875 -9.265625 13.46875 -10.328125 C 13.46875 -11.296875 13.4375 -12.160156 13.375 -12.921875 C 13.3125 -13.679688 13.160156 -14.441406 12.921875 -15.203125 L 9.78125 -23.5 L 6.78125 -15.546875 C 6.613281 -15.097656 6.566406 -14.78125 6.640625 -14.59375 C 6.722656 -14.414062 6.867188 -14.328125 7.078125 -14.328125 C 7.367188 -14.328125 7.648438 -14.460938 7.921875 -14.734375 C 8.203125 -15.015625 8.476562 -15.332031 8.75 -15.6875 C 9.03125 -16.039062 9.320312 -16.359375 9.625 -16.640625 C 9.9375 -16.921875 10.265625 -17.0625 10.609375 -17.0625 C 10.847656 -17.0625 11.050781 -16.976562 11.21875 -16.8125 C 11.382812 -16.644531 11.46875 -16.390625 11.46875 -16.046875 C 11.46875 -15.472656 11.265625 -14.945312 10.859375 -14.46875 C 10.453125 -13.988281 9.925781 -13.523438 9.28125 -13.078125 C 8.632812 -12.628906 7.945312 -12.148438 7.21875 -11.640625 C 6.5 -11.140625 5.816406 -10.582031 5.171875 -9.96875 C 4.535156 -9.351562 4.007812 -8.644531 3.59375 -7.84375 C 3.1875 -7.050781 2.984375 -6.117188 2.984375 -5.046875 Z M 2.984375 -5.046875 "></path></g></g></g><g fill="#2E2A24" fill-opacity="1"><g transform="translate(141.834151, 208.018916)"><g><path d="M 11.890625 -11.53125 C 12.578125 -11.53125 13.144531 -11.410156 13.59375 -11.171875 C 14.050781 -10.929688 14.375 -10.585938 14.5625 -10.140625 C 14.75 -9.691406 14.789062 -9.160156 14.6875 -8.546875 C 14.550781 -7.804688 14.316406 -7.066406 13.984375 -6.328125 C 13.648438 -5.597656 13.234375 -4.882812 12.734375 -4.1875 C 12.242188 -3.488281 11.6875 -2.828125 11.0625 -2.203125 C 10.445312 -1.578125 9.785156 -1.003906 9.078125 -0.484375 C 8.367188 0.0351562 7.640625 0.484375 6.890625 0.859375 C 6.140625 1.242188 5.382812 1.539062 4.625 1.75 C 3.863281 1.957031 3.117188 2.0625 2.390625 2.0625 C 1.867188 2.0625 1.429688 1.988281 1.078125 1.84375 C 0.722656 1.707031 0.460938 1.507812 0.296875 1.25 C 0.140625 0.988281 0.0976562 0.6875 0.171875 0.34375 C 0.222656 0.03125 0.359375 -0.285156 0.578125 -0.609375 C 0.796875 -0.941406 1.082031 -1.265625 1.4375 -1.578125 C 1.800781 -1.898438 2.210938 -2.195312 2.671875 -2.46875 C 3.140625 -2.75 3.640625 -2.992188 4.171875 -3.203125 C 4.191406 -3.210938 4.210938 -3.222656 4.234375 -3.234375 C 4.640625 -3.765625 5.070312 -4.316406 5.53125 -4.890625 C 5.988281 -5.460938 6.453125 -6.03125 6.921875 -6.59375 C 7.398438 -7.15625 7.867188 -7.6875 8.328125 -8.1875 C 8.796875 -8.6875 9.238281 -9.128906 9.65625 -9.515625 C 9.695312 -9.554688 9.757812 -9.578125 9.84375 -9.578125 C 9.914062 -9.578125 9.976562 -9.550781 10.03125 -9.5 C 10.082031 -9.445312 10.109375 -9.382812 10.109375 -9.3125 C 10.109375 -9.226562 10.082031 -9.164062 10.03125 -9.125 C 9.664062 -8.78125 9.273438 -8.390625 8.859375 -7.953125 C 8.453125 -7.515625 8.035156 -7.046875 7.609375 -6.546875 C 7.179688 -6.054688 6.757812 -5.550781 6.34375 -5.03125 C 5.925781 -4.519531 5.523438 -4.019531 5.140625 -3.53125 C 5.691406 -3.695312 6.265625 -3.820312 6.859375 -3.90625 C 7.453125 -3.988281 8.050781 -4.03125 8.65625 -4.03125 C 9.03125 -4.03125 9.40625 -4.015625 9.78125 -3.984375 C 10.164062 -3.953125 10.546875 -3.90625 10.921875 -3.84375 C 10.992188 -3.832031 11.050781 -3.800781 11.09375 -3.75 C 11.132812 -3.707031 11.15625 -3.648438 11.15625 -3.578125 C 11.15625 -3.503906 11.128906 -3.4375 11.078125 -3.375 C 11.023438 -3.320312 10.960938 -3.296875 10.890625 -3.296875 L 10.84375 -3.3125 C 10.101562 -3.4375 9.375 -3.5 8.65625 -3.5 C 7.207031 -3.5 5.851562 -3.269531 4.59375 -2.8125 C 4.570312 -2.800781 4.554688 -2.785156 4.546875 -2.765625 C 4.210938 -2.328125 3.90625 -1.914062 3.625 -1.53125 C 3.34375 -1.144531 3.101562 -0.804688 2.90625 -0.515625 C 2.71875 -0.234375 2.585938 -0.0195312 2.515625 0.125 C 2.460938 0.21875 2.378906 0.265625 2.265625 0.265625 C 2.191406 0.265625 2.128906 0.238281 2.078125 0.1875 C 2.023438 0.132812 2 0.0703125 2 0 C 2 -0.0507812 2.007812 -0.09375 2.03125 -0.125 C 2.113281 -0.300781 2.285156 -0.582031 2.546875 -0.96875 C 2.816406 -1.351562 3.15625 -1.816406 3.5625 -2.359375 C 3.039062 -2.109375 2.570312 -1.820312 2.15625 -1.5 C 1.75 -1.1875 1.414062 -0.859375 1.15625 -0.515625 C 0.90625 -0.179688 0.75 0.128906 0.6875 0.421875 C 0.625 0.773438 0.738281 1.046875 1.03125 1.234375 C 1.332031 1.429688 1.785156 1.53125 2.390625 1.53125 C 3.078125 1.53125 3.78125 1.425781 4.5 1.21875 C 5.226562 1.019531 5.953125 0.734375 6.671875 0.359375 C 7.398438 -0.00390625 8.097656 -0.4375 8.765625 -0.9375 C 9.441406 -1.4375 10.078125 -1.984375 10.671875 -2.578125 C 11.273438 -3.179688 11.816406 -3.816406 12.296875 -4.484375 C 12.773438 -5.148438 13.171875 -5.832031 13.484375 -6.53125 C 13.804688 -7.238281 14.03125 -7.941406 14.15625 -8.640625 C 14.289062 -9.390625 14.160156 -9.96875 13.765625 -10.375 C 13.367188 -10.789062 12.742188 -11 11.890625 -11 C 11.210938 -11 10.535156 -10.910156 9.859375 -10.734375 C 9.179688 -10.554688 8.515625 -10.3125 7.859375 -10 C 7.203125 -9.695312 6.570312 -9.347656 5.96875 -8.953125 C 5.375 -8.554688 4.816406 -8.132812 4.296875 -7.6875 C 3.773438 -7.25 3.304688 -6.804688 2.890625 -6.359375 C 2.484375 -5.921875 2.140625 -5.5 1.859375 -5.09375 C 1.804688 -5.007812 1.734375 -4.96875 1.640625 -4.96875 C 1.566406 -4.96875 1.5 -4.992188 1.4375 -5.046875 C 1.382812 -5.097656 1.359375 -5.164062 1.359375 -5.25 C 1.359375 -5.300781 1.375 -5.351562 1.40625 -5.40625 C 1.695312 -5.8125 2.054688 -6.242188 2.484375 -6.703125 C 2.910156 -7.171875 3.394531 -7.632812 3.9375 -8.09375 C 4.476562 -8.550781 5.0625 -8.984375 5.6875 -9.390625 C 6.320312 -9.804688 6.984375 -10.175781 7.671875 -10.5 C 8.359375 -10.820312 9.054688 -11.070312 9.765625 -11.25 C 10.484375 -11.4375 11.191406 -11.53125 11.890625 -11.53125 Z M 11.890625 -11.53125 "></path></g></g></g><g fill="#2E2A24" fill-opacity="1"><g transform="translate(154.901849, 208.018916)"><g><path d="M 7.75 -3.046875 C 7.820312 -3.046875 7.882812 -3.019531 7.9375 -2.96875 C 7.988281 -2.914062 8.015625 -2.851562 8.015625 -2.78125 C 8.015625 -2.6875 7.976562 -2.613281 7.90625 -2.5625 C 7.425781 -2.207031 6.914062 -1.882812 6.375 -1.59375 C 5.84375 -1.3125 5.3125 -1.054688 4.78125 -0.828125 C 4.25 -0.609375 3.742188 -0.425781 3.265625 -0.28125 C 2.796875 -0.132812 2.375 -0.0234375 2 0.046875 C 1.632812 0.128906 1.347656 0.171875 1.140625 0.171875 C 0.609375 0.171875 0.195312 0.078125 -0.09375 -0.109375 C -0.394531 -0.304688 -0.546875 -0.585938 -0.546875 -0.953125 C -0.546875 -1.179688 -0.484375 -1.425781 -0.359375 -1.6875 C -0.234375 -1.957031 -0.0703125 -2.21875 0.125 -2.46875 C 0.332031 -2.726562 0.5625 -2.960938 0.8125 -3.171875 C 1.070312 -3.378906 1.332031 -3.539062 1.59375 -3.65625 C 1.851562 -3.78125 2.101562 -3.84375 2.34375 -3.84375 C 2.550781 -3.84375 2.71875 -3.785156 2.84375 -3.671875 C 2.976562 -3.566406 3.046875 -3.425781 3.046875 -3.25 C 3.046875 -3.125 3 -3 2.90625 -2.875 C 2.820312 -2.75 2.703125 -2.632812 2.546875 -2.53125 C 2.398438 -2.425781 2.238281 -2.34375 2.0625 -2.28125 C 1.894531 -2.21875 1.722656 -2.1875 1.546875 -2.1875 C 1.203125 -2.1875 0.925781 -2.234375 0.71875 -2.328125 C 0.5 -2.078125 0.320312 -1.828125 0.1875 -1.578125 C 0.0625 -1.335938 0 -1.128906 0 -0.953125 C 0 -0.566406 0.378906 -0.375 1.140625 -0.375 C 1.328125 -0.375 1.597656 -0.40625 1.953125 -0.46875 C 2.304688 -0.539062 2.707031 -0.648438 3.15625 -0.796875 C 3.601562 -0.941406 4.082031 -1.117188 4.59375 -1.328125 C 5.101562 -1.546875 5.613281 -1.789062 6.125 -2.0625 C 6.632812 -2.34375 7.125 -2.65625 7.59375 -3 C 7.632812 -3.03125 7.6875 -3.046875 7.75 -3.046875 Z M 2.5 -3.25 C 2.5 -3.269531 2.488281 -3.28125 2.46875 -3.28125 C 2.457031 -3.289062 2.414062 -3.296875 2.34375 -3.296875 C 2.1875 -3.296875 2.003906 -3.25 1.796875 -3.15625 C 1.597656 -3.0625 1.390625 -2.925781 1.171875 -2.75 C 1.273438 -2.738281 1.398438 -2.734375 1.546875 -2.734375 C 1.742188 -2.734375 1.910156 -2.765625 2.046875 -2.828125 C 2.191406 -2.890625 2.300781 -2.957031 2.375 -3.03125 C 2.457031 -3.113281 2.5 -3.1875 2.5 -3.25 Z M 2.5 -3.25 "></path></g></g></g><g fill="#2E2A24" fill-opacity="1"><g transform="translate(160.797834, 208.018916)"><g><path d="M 9.71875 -3.046875 C 9.789062 -3.046875 9.851562 -3.019531 9.90625 -2.96875 C 9.957031 -2.914062 9.984375 -2.851562 9.984375 -2.78125 C 9.984375 -2.644531 9.921875 -2.5625 9.796875 -2.53125 C 9.273438 -2.351562 8.71875 -2.175781 8.125 -2 C 7.539062 -1.832031 6.957031 -1.660156 6.375 -1.484375 C 5.800781 -1.304688 5.242188 -1.140625 4.703125 -0.984375 C 4.171875 -0.828125 3.6875 -0.675781 3.25 -0.53125 C 3.21875 -0.519531 3.203125 -0.507812 3.203125 -0.5 C 3.023438 -0.25 2.804688 0 2.546875 0.25 C 2.285156 0.507812 2 0.75 1.6875 0.96875 C 1.382812 1.1875 1.070312 1.363281 0.75 1.5 C 0.4375 1.632812 0.140625 1.703125 -0.140625 1.703125 C -0.347656 1.703125 -0.507812 1.65625 -0.625 1.5625 C -0.738281 1.46875 -0.796875 1.34375 -0.796875 1.1875 C -0.796875 1 -0.644531 0.785156 -0.34375 0.546875 C -0.0390625 0.304688 0.382812 0.0625 0.9375 -0.1875 C 1.488281 -0.445312 2.128906 -0.707031 2.859375 -0.96875 L 2.90625 -1 C 2.957031 -1.070312 3 -1.140625 3.03125 -1.203125 C 3.070312 -1.273438 3.085938 -1.328125 3.078125 -1.359375 C 3.054688 -1.390625 2.988281 -1.398438 2.875 -1.390625 C 2.769531 -1.378906 2.632812 -1.359375 2.46875 -1.328125 C 2.3125 -1.304688 2.148438 -1.28125 1.984375 -1.25 C 1.785156 -1.207031 1.582031 -1.171875 1.375 -1.140625 C 1.175781 -1.117188 0.992188 -1.109375 0.828125 -1.109375 C 0.535156 -1.109375 0.3125 -1.160156 0.15625 -1.265625 C 0.0078125 -1.378906 -0.0625 -1.539062 -0.0625 -1.75 C -0.0625 -1.957031 0.00390625 -2.175781 0.140625 -2.40625 C 0.285156 -2.632812 0.472656 -2.863281 0.703125 -3.09375 C 0.941406 -3.320312 1.203125 -3.53125 1.484375 -3.71875 C 1.773438 -3.90625 2.066406 -4.050781 2.359375 -4.15625 C 2.648438 -4.269531 2.925781 -4.328125 3.1875 -4.328125 C 3.394531 -4.328125 3.5625 -4.273438 3.6875 -4.171875 C 3.8125 -4.066406 3.875 -3.921875 3.875 -3.734375 C 3.875 -3.679688 3.867188 -3.628906 3.859375 -3.578125 C 3.804688 -3.378906 3.707031 -3.179688 3.5625 -2.984375 C 3.414062 -2.785156 3.257812 -2.632812 3.09375 -2.53125 C 3.039062 -2.507812 2.992188 -2.5 2.953125 -2.5 C 2.878906 -2.5 2.816406 -2.523438 2.765625 -2.578125 C 2.710938 -2.628906 2.6875 -2.691406 2.6875 -2.765625 C 2.6875 -2.867188 2.726562 -2.945312 2.8125 -3 C 2.894531 -3.050781 2.976562 -3.117188 3.0625 -3.203125 C 3.144531 -3.285156 3.207031 -3.375 3.25 -3.46875 C 3.300781 -3.5625 3.328125 -3.640625 3.328125 -3.703125 C 3.328125 -3.734375 3.3125 -3.753906 3.28125 -3.765625 C 3.257812 -3.785156 3.226562 -3.796875 3.1875 -3.796875 C 3 -3.796875 2.78125 -3.75 2.53125 -3.65625 C 2.289062 -3.5625 2.050781 -3.4375 1.8125 -3.28125 C 1.570312 -3.132812 1.347656 -2.972656 1.140625 -2.796875 C 0.941406 -2.617188 0.78125 -2.441406 0.65625 -2.265625 C 0.53125 -2.085938 0.46875 -1.929688 0.46875 -1.796875 C 0.46875 -1.742188 0.492188 -1.707031 0.546875 -1.6875 C 0.597656 -1.664062 0.691406 -1.65625 0.828125 -1.65625 C 0.972656 -1.65625 1.132812 -1.664062 1.3125 -1.6875 C 1.5 -1.71875 1.691406 -1.75 1.890625 -1.78125 C 2.066406 -1.8125 2.242188 -1.835938 2.421875 -1.859375 C 2.609375 -1.890625 2.769531 -1.90625 2.90625 -1.90625 C 3.132812 -1.90625 3.3125 -1.859375 3.4375 -1.765625 C 3.5625 -1.671875 3.613281 -1.535156 3.59375 -1.359375 C 3.59375 -1.347656 3.585938 -1.328125 3.578125 -1.296875 C 3.578125 -1.265625 3.570312 -1.234375 3.5625 -1.203125 C 3.957031 -1.328125 4.378906 -1.457031 4.828125 -1.59375 C 5.285156 -1.726562 5.75 -1.863281 6.21875 -2 C 6.8125 -2.175781 7.398438 -2.347656 7.984375 -2.515625 C 8.566406 -2.691406 9.113281 -2.863281 9.625 -3.03125 C 9.65625 -3.039062 9.6875 -3.046875 9.71875 -3.046875 Z M -0.03125 1.171875 C 0.144531 1.171875 0.359375 1.113281 0.609375 1 C 0.867188 0.882812 1.140625 0.722656 1.421875 0.515625 C 1.710938 0.316406 1.988281 0.0859375 2.25 -0.171875 C 1.925781 -0.046875 1.613281 0.0859375 1.3125 0.234375 C 1.019531 0.378906 0.753906 0.515625 0.515625 0.640625 C 0.273438 0.773438 0.0859375 0.890625 -0.046875 0.984375 C -0.117188 1.023438 -0.15625 1.066406 -0.15625 1.109375 C -0.15625 1.148438 -0.113281 1.171875 -0.03125 1.171875 Z M -0.03125 1.171875 "></path></g></g></g><g fill="#2E2A24" fill-opacity="1"><g transform="translate(168.661343, 208.018916)"><g><path d="M 2.46875 -4.296875 C 2.382812 -4.296875 2.316406 -4.320312 2.265625 -4.375 C 2.210938 -4.425781 2.1875 -4.488281 2.1875 -4.5625 C 2.1875 -4.625 2.207031 -4.679688 2.25 -4.734375 L 2.6875 -5.3125 C 2.738281 -5.375 2.8125 -5.40625 2.90625 -5.40625 C 2.976562 -5.40625 3.039062 -5.378906 3.09375 -5.328125 C 3.144531 -5.273438 3.171875 -5.210938 3.171875 -5.140625 C 3.171875 -5.078125 3.148438 -5.019531 3.109375 -4.96875 C 3.078125 -4.925781 3.03125 -4.863281 2.96875 -4.78125 C 2.90625 -4.695312 2.847656 -4.625 2.796875 -4.5625 C 2.773438 -4.519531 2.753906 -4.488281 2.734375 -4.46875 C 2.710938 -4.445312 2.695312 -4.425781 2.6875 -4.40625 C 2.625 -4.332031 2.550781 -4.296875 2.46875 -4.296875 Z M 0.28125 0.265625 C -0.03125 0.265625 -0.273438 0.179688 -0.453125 0.015625 C -0.628906 -0.148438 -0.71875 -0.382812 -0.71875 -0.6875 C -0.71875 -1 -0.535156 -1.425781 -0.171875 -1.96875 C 0.191406 -2.519531 0.703125 -3.132812 1.359375 -3.8125 C 1.421875 -3.863281 1.488281 -3.890625 1.5625 -3.890625 C 1.632812 -3.890625 1.695312 -3.863281 1.75 -3.8125 C 1.800781 -3.757812 1.828125 -3.695312 1.828125 -3.625 C 1.828125 -3.5625 1.804688 -3.503906 1.765625 -3.453125 L 1.75 -3.4375 C 1.375 -3.050781 1.039062 -2.671875 0.75 -2.296875 C 0.457031 -1.929688 0.226562 -1.609375 0.0625 -1.328125 C -0.101562 -1.054688 -0.1875 -0.84375 -0.1875 -0.6875 C -0.1875 -0.539062 -0.148438 -0.429688 -0.078125 -0.359375 C -0.00390625 -0.296875 0.113281 -0.265625 0.28125 -0.265625 C 0.457031 -0.265625 0.6875 -0.304688 0.96875 -0.390625 C 1.257812 -0.472656 1.59375 -0.582031 1.96875 -0.71875 C 2.34375 -0.863281 2.734375 -1.023438 3.140625 -1.203125 C 3.546875 -1.390625 3.953125 -1.585938 4.359375 -1.796875 C 4.773438 -2.003906 5.171875 -2.207031 5.546875 -2.40625 C 5.921875 -2.613281 6.257812 -2.816406 6.5625 -3.015625 C 6.625 -3.035156 6.671875 -3.046875 6.703125 -3.046875 C 6.773438 -3.046875 6.835938 -3.019531 6.890625 -2.96875 C 6.953125 -2.914062 6.984375 -2.851562 6.984375 -2.78125 C 6.984375 -2.675781 6.9375 -2.597656 6.84375 -2.546875 C 6.550781 -2.359375 6.207031 -2.15625 5.8125 -1.9375 C 5.425781 -1.726562 5.019531 -1.515625 4.59375 -1.296875 C 4.164062 -1.085938 3.738281 -0.890625 3.3125 -0.703125 C 2.882812 -0.515625 2.472656 -0.347656 2.078125 -0.203125 C 1.691406 -0.0546875 1.34375 0.0546875 1.03125 0.140625 C 0.726562 0.222656 0.476562 0.265625 0.28125 0.265625 Z M 0.28125 0.265625 "></path></g></g></g><g fill="#2E2A24" fill-opacity="1"><g transform="translate(173.513489, 208.018916)"><g><path d="M 8.734375 -2.96875 C 8.804688 -2.96875 8.867188 -2.941406 8.921875 -2.890625 C 8.972656 -2.835938 9 -2.773438 9 -2.703125 C 9 -2.617188 8.960938 -2.550781 8.890625 -2.5 C 8.679688 -2.332031 8.375 -2.109375 7.96875 -1.828125 C 7.570312 -1.546875 7.09375 -1.222656 6.53125 -0.859375 C 5.976562 -0.492188 5.363281 -0.0976562 4.6875 0.328125 C 4.007812 0.765625 3.289062 1.226562 2.53125 1.71875 C 1.707031 2.25 0.914062 2.757812 0.15625 3.25 C -0.59375 3.75 -1.316406 4.222656 -2.015625 4.671875 L -2 4.65625 C -2.601562 5.320312 -3.273438 6.039062 -4.015625 6.8125 C -4.765625 7.582031 -5.582031 8.421875 -6.46875 9.328125 C -8.03125 10.890625 -9.34375 12.050781 -10.40625 12.8125 C -11.476562 13.582031 -12.335938 13.96875 -12.984375 13.96875 C -13.253906 13.96875 -13.46875 13.890625 -13.625 13.734375 C -13.789062 13.585938 -13.875 13.390625 -13.875 13.140625 C -13.875 12.929688 -13.742188 12.664062 -13.484375 12.34375 C -13.222656 12.03125 -12.8125 11.632812 -12.25 11.15625 C -11.6875 10.6875 -10.953125 10.125 -10.046875 9.46875 C -9.148438 8.8125 -8.0625 8.050781 -6.78125 7.1875 C -5.507812 6.320312 -4.03125 5.335938 -2.34375 4.234375 L -2.34375 4.25 C -1.425781 3.25 -0.644531 2.367188 0 1.609375 C 0.65625 0.859375 1.203125 0.21875 1.640625 -0.3125 C 2.078125 -0.851562 2.425781 -1.296875 2.6875 -1.640625 C 2.71875 -1.691406 2.722656 -1.734375 2.703125 -1.765625 C 2.679688 -1.804688 2.640625 -1.804688 2.578125 -1.765625 C 1.535156 -1.140625 0.710938 -0.679688 0.109375 -0.390625 C -0.492188 -0.0976562 -0.925781 0.046875 -1.1875 0.046875 C -1.394531 0.046875 -1.554688 -0.0078125 -1.671875 -0.125 C -1.785156 -0.238281 -1.84375 -0.394531 -1.84375 -0.59375 C -1.84375 -0.789062 -1.753906 -1.003906 -1.578125 -1.234375 C -1.410156 -1.472656 -1.175781 -1.71875 -0.875 -1.96875 C -0.582031 -2.21875 -0.253906 -2.457031 0.109375 -2.6875 C 0.472656 -2.914062 0.851562 -3.117188 1.25 -3.296875 C 1.644531 -3.484375 2.023438 -3.628906 2.390625 -3.734375 C 2.765625 -3.847656 3.109375 -3.90625 3.421875 -3.90625 C 3.703125 -3.90625 3.925781 -3.851562 4.09375 -3.75 C 4.269531 -3.644531 4.359375 -3.5 4.359375 -3.3125 C 4.359375 -3.238281 4.34375 -3.15625 4.3125 -3.0625 C 4.28125 -2.96875 4.222656 -2.851562 4.140625 -2.71875 C 4.066406 -2.59375 3.957031 -2.429688 3.8125 -2.234375 C 3.675781 -2.046875 3.5 -1.8125 3.28125 -1.53125 C 3.019531 -1.1875 2.710938 -0.789062 2.359375 -0.34375 C 2.003906 0.09375 1.585938 0.59375 1.109375 1.15625 C 0.628906 1.71875 0.0703125 2.359375 -0.5625 3.078125 C -0.113281 2.796875 0.34375 2.503906 0.8125 2.203125 C 1.28125 1.898438 1.757812 1.585938 2.25 1.265625 C 3 0.785156 3.710938 0.328125 4.390625 -0.109375 C 5.066406 -0.546875 5.679688 -0.945312 6.234375 -1.3125 C 6.785156 -1.675781 7.257812 -1.992188 7.65625 -2.265625 C 8.050781 -2.535156 8.351562 -2.75 8.5625 -2.90625 C 8.613281 -2.945312 8.671875 -2.96875 8.734375 -2.96875 Z M 2.296875 -2.234375 C 2.628906 -2.441406 2.910156 -2.617188 3.140625 -2.765625 C 3.378906 -2.921875 3.5625 -3.039062 3.6875 -3.125 C 3.707031 -3.132812 3.722656 -3.144531 3.734375 -3.15625 C 3.753906 -3.175781 3.773438 -3.191406 3.796875 -3.203125 C 3.804688 -3.242188 3.8125 -3.28125 3.8125 -3.3125 C 3.75 -3.34375 3.679688 -3.359375 3.609375 -3.359375 C 3.535156 -3.359375 3.472656 -3.359375 3.421875 -3.359375 C 3.179688 -3.359375 2.898438 -3.3125 2.578125 -3.21875 C 2.253906 -3.125 1.910156 -2.992188 1.546875 -2.828125 C 1.191406 -2.671875 0.847656 -2.492188 0.515625 -2.296875 C 0.179688 -2.097656 -0.117188 -1.894531 -0.390625 -1.6875 C -0.671875 -1.476562 -0.890625 -1.28125 -1.046875 -1.09375 C -1.210938 -0.90625 -1.296875 -0.738281 -1.296875 -0.59375 C -1.296875 -0.550781 -1.289062 -0.519531 -1.28125 -0.5 C -1.269531 -0.488281 -1.238281 -0.484375 -1.1875 -0.484375 C -0.769531 -0.484375 0.390625 -1.066406 2.296875 -2.234375 Z M -6.859375 8.9375 C -6.316406 8.394531 -5.800781 7.875 -5.3125 7.375 C -4.832031 6.875 -4.378906 6.398438 -3.953125 5.953125 C -6.097656 7.367188 -7.863281 8.570312 -9.25 9.5625 C -10.632812 10.550781 -11.660156 11.335938 -12.328125 11.921875 C -13.003906 12.515625 -13.34375 12.921875 -13.34375 13.140625 C -13.34375 13.328125 -13.222656 13.421875 -12.984375 13.421875 C -12.429688 13.421875 -11.640625 13.046875 -10.609375 12.296875 C -9.585938 11.546875 -8.335938 10.425781 -6.859375 8.9375 Z M -6.859375 8.9375 "></path></g></g></g><g fill="#2E2A24" fill-opacity="1"><g transform="translate(180.445805, 208.018916)"><g><path d="M -0.953125 0.0625 C -1.066406 0.0625 -1.15625 0.0195312 -1.21875 -0.0625 C -1.289062 -0.144531 -1.3125 -0.25 -1.28125 -0.375 C -1.269531 -0.457031 -1.203125 -0.597656 -1.078125 -0.796875 C -0.953125 -0.992188 -0.785156 -1.234375 -0.578125 -1.515625 C -0.367188 -1.796875 -0.128906 -2.097656 0.140625 -2.421875 C 0.410156 -2.753906 0.703125 -3.09375 1.015625 -3.4375 C 1.328125 -3.78125 1.648438 -4.109375 1.984375 -4.421875 C 2.316406 -4.734375 2.648438 -5.015625 2.984375 -5.265625 C 3.035156 -5.304688 3.085938 -5.328125 3.140625 -5.328125 C 3.222656 -5.328125 3.289062 -5.300781 3.34375 -5.25 C 3.394531 -5.195312 3.421875 -5.128906 3.421875 -5.046875 C 3.421875 -4.960938 3.382812 -4.894531 3.3125 -4.84375 C 2.96875 -4.582031 2.625 -4.289062 2.28125 -3.96875 C 1.945312 -3.65625 1.625 -3.328125 1.3125 -2.984375 C 1.007812 -2.648438 0.734375 -2.332031 0.484375 -2.03125 C 0.242188 -1.726562 0.0390625 -1.46875 -0.125 -1.25 C -0.15625 -1.207031 -0.160156 -1.175781 -0.140625 -1.15625 C -0.128906 -1.132812 -0.09375 -1.140625 -0.03125 -1.171875 C 0.851562 -1.816406 1.613281 -2.335938 2.25 -2.734375 C 2.894531 -3.140625 3.441406 -3.4375 3.890625 -3.625 C 4.335938 -3.820312 4.703125 -3.921875 4.984375 -3.921875 C 5.179688 -3.921875 5.335938 -3.867188 5.453125 -3.765625 C 5.566406 -3.671875 5.625 -3.535156 5.625 -3.359375 C 5.625 -3.203125 5.59375 -2.992188 5.53125 -2.734375 C 5.476562 -2.484375 5.421875 -2.234375 5.359375 -1.984375 C 5.304688 -1.773438 5.257812 -1.582031 5.21875 -1.40625 C 5.1875 -1.226562 5.171875 -1.097656 5.171875 -1.015625 C 5.171875 -0.953125 5.191406 -0.90625 5.234375 -0.875 C 5.273438 -0.84375 5.347656 -0.828125 5.453125 -0.828125 C 5.742188 -0.828125 6.082031 -0.878906 6.46875 -0.984375 C 6.851562 -1.085938 7.273438 -1.234375 7.734375 -1.421875 C 8.191406 -1.609375 8.664062 -1.835938 9.15625 -2.109375 C 9.65625 -2.378906 10.160156 -2.675781 10.671875 -3 C 10.710938 -3.03125 10.757812 -3.046875 10.8125 -3.046875 C 10.882812 -3.046875 10.945312 -3.019531 11 -2.96875 C 11.050781 -2.914062 11.078125 -2.851562 11.078125 -2.78125 C 11.078125 -2.675781 11.035156 -2.597656 10.953125 -2.546875 C 10.429688 -2.203125 9.910156 -1.890625 9.390625 -1.609375 C 8.867188 -1.328125 8.367188 -1.085938 7.890625 -0.890625 C 7.410156 -0.691406 6.960938 -0.539062 6.546875 -0.4375 C 6.128906 -0.332031 5.765625 -0.28125 5.453125 -0.28125 C 5.191406 -0.28125 4.988281 -0.34375 4.84375 -0.46875 C 4.695312 -0.601562 4.625 -0.785156 4.625 -1.015625 C 4.625 -1.117188 4.644531 -1.269531 4.6875 -1.46875 C 4.738281 -1.675781 4.789062 -1.894531 4.84375 -2.125 C 4.894531 -2.375 4.945312 -2.609375 5 -2.828125 C 5.050781 -3.046875 5.078125 -3.191406 5.078125 -3.265625 C 5.078125 -3.335938 5.035156 -3.375 4.953125 -3.375 C 4.785156 -3.375 4.578125 -3.328125 4.328125 -3.234375 C 4.078125 -3.140625 3.800781 -3.007812 3.5 -2.84375 C 3.195312 -2.675781 2.882812 -2.488281 2.5625 -2.28125 C 2.238281 -2.082031 1.914062 -1.875 1.59375 -1.65625 C 1.28125 -1.445312 0.976562 -1.238281 0.6875 -1.03125 C 0.40625 -0.832031 0.15625 -0.65625 -0.0625 -0.5 C -0.09375 -0.46875 -0.125 -0.441406 -0.15625 -0.421875 C -0.1875 -0.398438 -0.21875 -0.378906 -0.25 -0.359375 C -0.46875 -0.191406 -0.625 -0.078125 -0.71875 -0.015625 C -0.820312 0.0351562 -0.898438 0.0625 -0.953125 0.0625 Z M -0.953125 0.0625 "></path></g></g></g><g fill="#2E2A24" fill-opacity="1"><g transform="translate(189.398219, 208.018916)"><g><path d="M 13.28125 -3.3125 C 13.351562 -3.3125 13.414062 -3.285156 13.46875 -3.234375 C 13.519531 -3.179688 13.546875 -3.117188 13.546875 -3.046875 C 13.546875 -2.910156 13.484375 -2.820312 13.359375 -2.78125 C 12.222656 -2.382812 11.171875 -2.023438 10.203125 -1.703125 C 9.242188 -1.378906 8.367188 -1.085938 7.578125 -0.828125 L 6.8125 -0.578125 C 6.832031 -0.492188 6.84375 -0.390625 6.84375 -0.265625 C 6.84375 -0.00390625 6.765625 0.25 6.609375 0.5 C 6.453125 0.757812 6.226562 1 5.9375 1.21875 C 5.65625 1.445312 5.332031 1.648438 4.96875 1.828125 C 4.613281 2.003906 4.226562 2.140625 3.8125 2.234375 C 3.40625 2.335938 2.992188 2.390625 2.578125 2.390625 C 2.078125 2.390625 1.679688 2.320312 1.390625 2.1875 C 1.097656 2.050781 0.953125 1.859375 0.953125 1.609375 C 0.953125 1.472656 0.992188 1.34375 1.078125 1.21875 C 1.160156 1.101562 1.3125 0.976562 1.53125 0.84375 C 1.75 0.71875 2.050781 0.570312 2.4375 0.40625 C 2.820312 0.238281 3.316406 0.0507812 3.921875 -0.15625 C 4.523438 -0.375 5.257812 -0.628906 6.125 -0.921875 C 5.96875 -1.203125 5.71875 -1.484375 5.375 -1.765625 C 5.03125 -2.054688 4.59375 -2.347656 4.0625 -2.640625 C 3.6875 -2.847656 3.335938 -3.0625 3.015625 -3.28125 C 2.703125 -3.507812 2.429688 -3.75 2.203125 -4 C 1.972656 -4.257812 1.804688 -4.539062 1.703125 -4.84375 C 1.609375 -5.15625 1.597656 -5.507812 1.671875 -5.90625 C 1.742188 -6.300781 1.90625 -6.691406 2.15625 -7.078125 C 2.40625 -7.460938 2.726562 -7.832031 3.125 -8.1875 C 3.519531 -8.550781 3.960938 -8.890625 4.453125 -9.203125 C 4.941406 -9.515625 5.457031 -9.800781 6 -10.0625 C 6.539062 -10.320312 7.09375 -10.546875 7.65625 -10.734375 C 8.21875 -10.921875 8.765625 -11.0625 9.296875 -11.15625 C 9.828125 -11.257812 10.328125 -11.3125 10.796875 -11.3125 C 11.367188 -11.3125 11.847656 -11.222656 12.234375 -11.046875 C 12.617188 -10.878906 12.894531 -10.632812 13.0625 -10.3125 C 13.238281 -10 13.285156 -9.617188 13.203125 -9.171875 C 13.109375 -8.597656 12.851562 -8.035156 12.4375 -7.484375 C 12.03125 -6.941406 11.488281 -6.441406 10.8125 -5.984375 C 10.769531 -5.953125 10.71875 -5.9375 10.65625 -5.9375 C 10.570312 -5.9375 10.503906 -5.960938 10.453125 -6.015625 C 10.398438 -6.066406 10.375 -6.128906 10.375 -6.203125 C 10.375 -6.296875 10.414062 -6.367188 10.5 -6.421875 C 11.125 -6.847656 11.617188 -7.300781 11.984375 -7.78125 C 12.359375 -8.269531 12.585938 -8.765625 12.671875 -9.265625 C 12.765625 -9.753906 12.648438 -10.125 12.328125 -10.375 C 12.003906 -10.632812 11.492188 -10.765625 10.796875 -10.765625 C 10.347656 -10.765625 9.867188 -10.71875 9.359375 -10.625 C 8.847656 -10.53125 8.328125 -10.394531 7.796875 -10.21875 C 7.273438 -10.050781 6.753906 -9.847656 6.234375 -9.609375 C 5.722656 -9.367188 5.238281 -9.101562 4.78125 -8.8125 C 4.320312 -8.53125 3.910156 -8.222656 3.546875 -7.890625 C 3.179688 -7.566406 2.878906 -7.226562 2.640625 -6.875 C 2.410156 -6.53125 2.265625 -6.179688 2.203125 -5.828125 C 2.128906 -5.410156 2.171875 -5.046875 2.328125 -4.734375 C 2.484375 -4.429688 2.734375 -4.148438 3.078125 -3.890625 C 3.421875 -3.640625 3.835938 -3.378906 4.328125 -3.109375 C 5.523438 -2.441406 6.296875 -1.769531 6.640625 -1.09375 L 7.390625 -1.34375 C 8.191406 -1.613281 9.070312 -1.910156 10.03125 -2.234375 C 11 -2.554688 12.050781 -2.910156 13.1875 -3.296875 C 13.21875 -3.304688 13.25 -3.3125 13.28125 -3.3125 Z M 2.578125 1.84375 C 2.921875 1.84375 3.269531 1.800781 3.625 1.71875 C 3.976562 1.632812 4.3125 1.519531 4.625 1.375 C 4.945312 1.238281 5.234375 1.078125 5.484375 0.890625 C 5.742188 0.710938 5.945312 0.519531 6.09375 0.3125 C 6.238281 0.113281 6.3125 -0.078125 6.3125 -0.265625 C 6.3125 -0.285156 6.3125 -0.304688 6.3125 -0.328125 C 6.3125 -0.359375 6.304688 -0.382812 6.296875 -0.40625 C 5.390625 -0.101562 4.625 0.15625 4 0.375 C 3.382812 0.601562 2.890625 0.796875 2.515625 0.953125 C 2.148438 1.109375 1.890625 1.238281 1.734375 1.34375 C 1.578125 1.445312 1.5 1.535156 1.5 1.609375 C 1.5 1.640625 1.550781 1.671875 1.65625 1.703125 C 1.757812 1.742188 1.894531 1.773438 2.0625 1.796875 C 2.238281 1.828125 2.410156 1.84375 2.578125 1.84375 Z M 2.578125 1.84375 "></path></g></g></g><g fill="#2E2A24" fill-opacity="1"><g transform="translate(200.596011, 208.018916)"><g><path d="M 13.828125 -7.9375 C 13.898438 -7.925781 13.960938 -7.894531 14.015625 -7.84375 C 14.066406 -7.789062 14.09375 -7.726562 14.09375 -7.65625 C 14.09375 -7.582031 14.066406 -7.519531 14.015625 -7.46875 C 13.960938 -7.414062 13.894531 -7.390625 13.8125 -7.390625 L 13.796875 -7.390625 C 12.390625 -7.441406 10.941406 -7.46875 9.453125 -7.46875 C 7.960938 -7.46875 6.472656 -7.4375 4.984375 -7.375 C 3.585938 -5.738281 2.210938 -4.066406 0.859375 -2.359375 C -0.492188 -0.660156 -1.796875 1.039062 -3.046875 2.75 C -4.296875 4.457031 -5.460938 6.15625 -6.546875 7.84375 C -6.492188 7.914062 -6.503906 8.015625 -6.578125 8.140625 C -6.804688 8.523438 -7.007812 8.71875 -7.1875 8.71875 C -7.3125 8.71875 -7.394531 8.679688 -7.4375 8.609375 C -7.476562 8.535156 -7.476562 8.4375 -7.4375 8.3125 L -7.4375 8.296875 C -7.40625 8.210938 -7.359375 8.125 -7.296875 8.03125 C -6.222656 6.320312 -5.0625 4.601562 -3.8125 2.875 C -2.5625 1.15625 -1.257812 -0.5625 0.09375 -2.28125 C 1.457031 -4 2.84375 -5.6875 4.25 -7.34375 C 2.820312 -7.28125 1.425781 -7.191406 0.0625 -7.078125 C -1.300781 -6.960938 -2.601562 -6.820312 -3.84375 -6.65625 L -3.890625 -6.65625 C -3.960938 -6.65625 -4.023438 -6.679688 -4.078125 -6.734375 C -4.128906 -6.785156 -4.15625 -6.851562 -4.15625 -6.9375 C -4.15625 -7 -4.128906 -7.054688 -4.078125 -7.109375 C -4.035156 -7.160156 -3.976562 -7.191406 -3.90625 -7.203125 C -2.582031 -7.367188 -1.191406 -7.507812 0.265625 -7.625 C 1.722656 -7.75 3.207031 -7.84375 4.71875 -7.90625 C 5.625 -8.96875 6.554688 -10.035156 7.515625 -11.109375 C 8.472656 -12.191406 9.457031 -13.273438 10.46875 -14.359375 C 10.507812 -14.421875 10.570312 -14.453125 10.65625 -14.453125 C 10.726562 -14.453125 10.789062 -14.425781 10.84375 -14.375 C 10.894531 -14.320312 10.921875 -14.253906 10.921875 -14.171875 C 10.921875 -14.097656 10.898438 -14.039062 10.859375 -14 C 9.960938 -13.03125 9.0625 -12.039062 8.15625 -11.03125 C 7.257812 -10.019531 6.359375 -8.988281 5.453125 -7.9375 C 6.847656 -7.988281 8.25 -8.015625 9.65625 -8.015625 C 11.0625 -8.015625 12.453125 -7.988281 13.828125 -7.9375 Z M 13.828125 -7.9375 "></path></g></g></g><g fill="#2E2A24" fill-opacity="1"><g transform="translate(204.58454, 208.018916)"><g><path d="M 10.109375 -3.078125 C 10.179688 -3.078125 10.242188 -3.046875 10.296875 -2.984375 C 10.359375 -2.929688 10.390625 -2.867188 10.390625 -2.796875 C 10.390625 -2.703125 10.347656 -2.628906 10.265625 -2.578125 C 9.984375 -2.378906 9.660156 -2.175781 9.296875 -1.96875 C 8.929688 -1.757812 8.546875 -1.554688 8.140625 -1.359375 C 7.742188 -1.160156 7.34375 -0.972656 6.9375 -0.796875 C 6.539062 -0.628906 6.15625 -0.476562 5.78125 -0.34375 C 5.40625 -0.21875 5.0625 -0.113281 4.75 -0.03125 C 4.445312 0.0390625 4.195312 0.078125 4 0.078125 C 3.570312 0.078125 3.25 -0.015625 3.03125 -0.203125 C 2.8125 -0.390625 2.703125 -0.65625 2.703125 -1 C 2.703125 -1.1875 2.734375 -1.367188 2.796875 -1.546875 C 2.859375 -1.722656 2.960938 -1.925781 3.109375 -2.15625 C 3.140625 -2.226562 3.144531 -2.269531 3.125 -2.28125 C 3.113281 -2.300781 3.082031 -2.289062 3.03125 -2.25 C 2.84375 -2.101562 2.628906 -1.9375 2.390625 -1.75 C 2.160156 -1.570312 1.914062 -1.390625 1.65625 -1.203125 C 1.40625 -1.023438 1.160156 -0.859375 0.921875 -0.703125 C 0.679688 -0.546875 0.457031 -0.421875 0.25 -0.328125 C 0.0507812 -0.234375 -0.101562 -0.1875 -0.21875 -0.1875 C -0.40625 -0.1875 -0.550781 -0.238281 -0.65625 -0.34375 C -0.757812 -0.457031 -0.8125 -0.609375 -0.8125 -0.796875 C -0.8125 -1.109375 -0.640625 -1.5 -0.296875 -1.96875 C 0.0351562 -2.4375 0.523438 -2.953125 1.171875 -3.515625 C 1.222656 -3.566406 1.285156 -3.59375 1.359375 -3.59375 C 1.421875 -3.59375 1.476562 -3.566406 1.53125 -3.515625 C 1.59375 -3.460938 1.625 -3.398438 1.625 -3.328125 C 1.625 -3.234375 1.59375 -3.164062 1.53125 -3.125 C 0.96875 -2.613281 0.523438 -2.15625 0.203125 -1.75 C -0.117188 -1.351562 -0.28125 -1.050781 -0.28125 -0.84375 C -0.28125 -0.800781 -0.269531 -0.769531 -0.25 -0.75 C -0.226562 -0.738281 -0.207031 -0.734375 -0.1875 -0.734375 C -0.0078125 -0.734375 0.320312 -0.898438 0.8125 -1.234375 C 1.300781 -1.566406 1.976562 -2.078125 2.84375 -2.765625 C 3.207031 -3.066406 3.503906 -3.3125 3.734375 -3.5 C 3.960938 -3.6875 4.144531 -3.820312 4.28125 -3.90625 C 4.425781 -4 4.535156 -4.046875 4.609375 -4.046875 C 4.847656 -4.046875 4.957031 -3.957031 4.9375 -3.78125 C 4.914062 -3.613281 4.757812 -3.367188 4.46875 -3.046875 C 4.332031 -2.898438 4.191406 -2.742188 4.046875 -2.578125 C 3.910156 -2.410156 3.78125 -2.234375 3.65625 -2.046875 C 3.53125 -1.867188 3.425781 -1.691406 3.34375 -1.515625 C 3.269531 -1.335938 3.234375 -1.164062 3.234375 -1 C 3.234375 -0.8125 3.289062 -0.675781 3.40625 -0.59375 C 3.53125 -0.507812 3.726562 -0.46875 4 -0.46875 C 4.175781 -0.46875 4.398438 -0.5 4.671875 -0.5625 C 4.953125 -0.632812 5.265625 -0.734375 5.609375 -0.859375 C 5.960938 -0.984375 6.332031 -1.128906 6.71875 -1.296875 C 7.101562 -1.460938 7.488281 -1.640625 7.875 -1.828125 C 8.257812 -2.015625 8.628906 -2.207031 8.984375 -2.40625 C 9.335938 -2.613281 9.660156 -2.816406 9.953125 -3.015625 C 9.992188 -3.054688 10.046875 -3.078125 10.109375 -3.078125 Z M 10.109375 -3.078125 "></path></g></g></g><g fill="#2E2A24" fill-opacity="1"><g transform="translate(212.831037, 208.018916)"><g><path d="M 9.96875 -3.0625 C 10.050781 -3.0625 10.117188 -3.035156 10.171875 -2.984375 C 10.222656 -2.929688 10.25 -2.863281 10.25 -2.78125 C 10.25 -2.6875 10.203125 -2.609375 10.109375 -2.546875 C 9.648438 -2.234375 9.164062 -1.941406 8.65625 -1.671875 C 8.144531 -1.398438 7.632812 -1.15625 7.125 -0.9375 C 6.625 -0.71875 6.140625 -0.53125 5.671875 -0.375 C 5.203125 -0.226562 4.773438 -0.113281 4.390625 -0.03125 C 4.015625 0.0507812 3.695312 0.09375 3.4375 0.09375 C 3.007812 0.09375 2.6875 0.00390625 2.46875 -0.171875 C 2.25 -0.359375 2.140625 -0.628906 2.140625 -0.984375 C 2.140625 -1.242188 2.3125 -1.679688 2.65625 -2.296875 C 2.695312 -2.359375 2.703125 -2.398438 2.671875 -2.421875 C 2.648438 -2.441406 2.609375 -2.421875 2.546875 -2.359375 C 1.660156 -1.578125 0.945312 -0.984375 0.40625 -0.578125 C -0.132812 -0.171875 -0.492188 0.03125 -0.671875 0.03125 C -0.847656 0.03125 -0.988281 -0.015625 -1.09375 -0.109375 C -1.195312 -0.203125 -1.25 -0.332031 -1.25 -0.5 C -1.25 -0.71875 -1.1875 -0.953125 -1.0625 -1.203125 C -0.945312 -1.453125 -0.78125 -1.703125 -0.5625 -1.953125 C -0.351562 -2.203125 -0.117188 -2.4375 0.140625 -2.65625 C 0.410156 -2.882812 0.691406 -3.085938 0.984375 -3.265625 C 1.285156 -3.441406 1.582031 -3.582031 1.875 -3.6875 C 2.175781 -3.789062 2.457031 -3.84375 2.71875 -3.84375 C 2.90625 -3.84375 3.085938 -3.804688 3.265625 -3.734375 C 3.410156 -3.867188 3.554688 -4.003906 3.703125 -4.140625 C 3.847656 -4.285156 4 -4.429688 4.15625 -4.578125 L 4.140625 -4.5625 C 4.585938 -5.175781 5.078125 -5.832031 5.609375 -6.53125 C 6.140625 -7.226562 6.695312 -7.9375 7.28125 -8.65625 C 7.875 -9.382812 8.472656 -10.109375 9.078125 -10.828125 C 9.691406 -11.546875 10.289062 -12.234375 10.875 -12.890625 C 11.46875 -13.546875 12.035156 -14.15625 12.578125 -14.71875 C 13.117188 -15.28125 13.613281 -15.769531 14.0625 -16.1875 C 14.507812 -16.613281 14.894531 -16.941406 15.21875 -17.171875 C 15.539062 -17.398438 15.78125 -17.515625 15.9375 -17.515625 C 16.320312 -17.515625 16.515625 -17.34375 16.515625 -17 C 16.515625 -16.882812 16.410156 -16.675781 16.203125 -16.375 C 15.992188 -16.070312 15.703125 -15.695312 15.328125 -15.25 C 14.960938 -14.8125 14.523438 -14.3125 14.015625 -13.75 C 13.515625 -13.195312 12.960938 -12.601562 12.359375 -11.96875 C 11.765625 -11.332031 11.132812 -10.675781 10.46875 -10 C 9.8125 -9.320312 9.140625 -8.640625 8.453125 -7.953125 C 7.765625 -7.273438 7.082031 -6.609375 6.40625 -5.953125 C 5.726562 -5.296875 5.070312 -4.671875 4.4375 -4.078125 C 4.320312 -3.929688 4.210938 -3.78125 4.109375 -3.625 C 4.015625 -3.476562 3.921875 -3.335938 3.828125 -3.203125 C 3.867188 -3.128906 3.894531 -3.046875 3.90625 -2.953125 C 3.914062 -2.867188 3.914062 -2.785156 3.90625 -2.703125 C 3.894531 -2.628906 3.863281 -2.566406 3.8125 -2.515625 C 3.757812 -2.460938 3.703125 -2.4375 3.640625 -2.4375 C 3.535156 -2.4375 3.457031 -2.476562 3.40625 -2.5625 C 2.914062 -1.769531 2.671875 -1.242188 2.671875 -0.984375 C 2.671875 -0.796875 2.726562 -0.65625 2.84375 -0.5625 C 2.957031 -0.476562 3.15625 -0.4375 3.4375 -0.4375 C 3.675781 -0.4375 3.972656 -0.476562 4.328125 -0.5625 C 4.691406 -0.644531 5.097656 -0.757812 5.546875 -0.90625 C 5.992188 -1.050781 6.457031 -1.226562 6.9375 -1.4375 C 7.425781 -1.644531 7.914062 -1.878906 8.40625 -2.140625 C 8.894531 -2.410156 9.367188 -2.703125 9.828125 -3.015625 C 9.867188 -3.046875 9.914062 -3.0625 9.96875 -3.0625 Z M 15.9375 -16.984375 C 15.832031 -16.984375 15.648438 -16.882812 15.390625 -16.6875 C 15.128906 -16.488281 14.804688 -16.207031 14.421875 -15.84375 C 14.046875 -15.476562 13.617188 -15.046875 13.140625 -14.546875 C 12.660156 -14.046875 12.148438 -13.492188 11.609375 -12.890625 C 11.066406 -12.296875 10.503906 -11.660156 9.921875 -10.984375 C 9.347656 -10.316406 8.769531 -9.628906 8.1875 -8.921875 C 7.601562 -8.210938 7.03125 -7.5 6.46875 -6.78125 C 6.789062 -7.09375 7.148438 -7.445312 7.546875 -7.84375 C 7.953125 -8.238281 8.378906 -8.664062 8.828125 -9.125 C 9.273438 -9.582031 9.734375 -10.050781 10.203125 -10.53125 C 10.671875 -11.019531 11.140625 -11.503906 11.609375 -11.984375 C 12.078125 -12.460938 12.523438 -12.929688 12.953125 -13.390625 C 13.378906 -13.847656 13.773438 -14.273438 14.140625 -14.671875 C 14.515625 -15.078125 14.835938 -15.4375 15.109375 -15.75 C 15.390625 -16.070312 15.601562 -16.332031 15.75 -16.53125 C 15.90625 -16.738281 15.984375 -16.875 15.984375 -16.9375 C 15.984375 -16.96875 15.96875 -16.984375 15.9375 -16.984375 Z M -0.640625 -0.5 C -0.523438 -0.5 -0.171875 -0.738281 0.421875 -1.21875 C 1.015625 -1.707031 1.800781 -2.398438 2.78125 -3.296875 L 2.71875 -3.296875 C 2.507812 -3.296875 2.28125 -3.25 2.03125 -3.15625 C 1.78125 -3.070312 1.523438 -2.953125 1.265625 -2.796875 C 1.015625 -2.648438 0.769531 -2.476562 0.53125 -2.28125 C 0.300781 -2.09375 0.09375 -1.894531 -0.09375 -1.6875 C -0.289062 -1.488281 -0.441406 -1.289062 -0.546875 -1.09375 C -0.660156 -0.894531 -0.71875 -0.722656 -0.71875 -0.578125 C -0.71875 -0.523438 -0.691406 -0.5 -0.640625 -0.5 Z M -0.640625 -0.5 "></path></g></g></g><g fill="#2E2A24" fill-opacity="1"><g transform="translate(220.942369, 208.018916)"><g><path d="M 2.46875 -4.296875 C 2.382812 -4.296875 2.316406 -4.320312 2.265625 -4.375 C 2.210938 -4.425781 2.1875 -4.488281 2.1875 -4.5625 C 2.1875 -4.625 2.207031 -4.679688 2.25 -4.734375 L 2.6875 -5.3125 C 2.738281 -5.375 2.8125 -5.40625 2.90625 -5.40625 C 2.976562 -5.40625 3.039062 -5.378906 3.09375 -5.328125 C 3.144531 -5.273438 3.171875 -5.210938 3.171875 -5.140625 C 3.171875 -5.078125 3.148438 -5.019531 3.109375 -4.96875 C 3.078125 -4.925781 3.03125 -4.863281 2.96875 -4.78125 C 2.90625 -4.695312 2.847656 -4.625 2.796875 -4.5625 C 2.773438 -4.519531 2.753906 -4.488281 2.734375 -4.46875 C 2.710938 -4.445312 2.695312 -4.425781 2.6875 -4.40625 C 2.625 -4.332031 2.550781 -4.296875 2.46875 -4.296875 Z M 0.28125 0.265625 C -0.03125 0.265625 -0.273438 0.179688 -0.453125 0.015625 C -0.628906 -0.148438 -0.71875 -0.382812 -0.71875 -0.6875 C -0.71875 -1 -0.535156 -1.425781 -0.171875 -1.96875 C 0.191406 -2.519531 0.703125 -3.132812 1.359375 -3.8125 C 1.421875 -3.863281 1.488281 -3.890625 1.5625 -3.890625 C 1.632812 -3.890625 1.695312 -3.863281 1.75 -3.8125 C 1.800781 -3.757812 1.828125 -3.695312 1.828125 -3.625 C 1.828125 -3.5625 1.804688 -3.503906 1.765625 -3.453125 L 1.75 -3.4375 C 1.375 -3.050781 1.039062 -2.671875 0.75 -2.296875 C 0.457031 -1.929688 0.226562 -1.609375 0.0625 -1.328125 C -0.101562 -1.054688 -0.1875 -0.84375 -0.1875 -0.6875 C -0.1875 -0.539062 -0.148438 -0.429688 -0.078125 -0.359375 C -0.00390625 -0.296875 0.113281 -0.265625 0.28125 -0.265625 C 0.457031 -0.265625 0.6875 -0.304688 0.96875 -0.390625 C 1.257812 -0.472656 1.59375 -0.582031 1.96875 -0.71875 C 2.34375 -0.863281 2.734375 -1.023438 3.140625 -1.203125 C 3.546875 -1.390625 3.953125 -1.585938 4.359375 -1.796875 C 4.773438 -2.003906 5.171875 -2.207031 5.546875 -2.40625 C 5.921875 -2.613281 6.257812 -2.816406 6.5625 -3.015625 C 6.625 -3.035156 6.671875 -3.046875 6.703125 -3.046875 C 6.773438 -3.046875 6.835938 -3.019531 6.890625 -2.96875 C 6.953125 -2.914062 6.984375 -2.851562 6.984375 -2.78125 C 6.984375 -2.675781 6.9375 -2.597656 6.84375 -2.546875 C 6.550781 -2.359375 6.207031 -2.15625 5.8125 -1.9375 C 5.425781 -1.726562 5.019531 -1.515625 4.59375 -1.296875 C 4.164062 -1.085938 3.738281 -0.890625 3.3125 -0.703125 C 2.882812 -0.515625 2.472656 -0.347656 2.078125 -0.203125 C 1.691406 -0.0546875 1.34375 0.0546875 1.03125 0.140625 C 0.726562 0.222656 0.476562 0.265625 0.28125 0.265625 Z M 0.28125 0.265625 "></path></g></g></g><g fill="#2E2A24" fill-opacity="1"><g transform="translate(225.794515, 208.018916)"><g><path d="M 8.125 -3.046875 C 8.1875 -3.046875 8.242188 -3.019531 8.296875 -2.96875 C 8.359375 -2.914062 8.390625 -2.851562 8.390625 -2.78125 C 8.390625 -2.675781 8.34375 -2.59375 8.25 -2.53125 C 7.800781 -2.28125 7.304688 -2.097656 6.765625 -1.984375 C 6.234375 -1.878906 5.679688 -1.84375 5.109375 -1.875 C 4.546875 -1.90625 3.984375 -2.003906 3.421875 -2.171875 C 2.859375 -2.347656 2.320312 -2.585938 1.8125 -2.890625 C 1.851562 -2.609375 1.84375 -2.316406 1.78125 -2.015625 C 1.726562 -1.710938 1.632812 -1.421875 1.5 -1.140625 C 1.363281 -0.859375 1.203125 -0.601562 1.015625 -0.375 C 0.835938 -0.144531 0.644531 0.03125 0.4375 0.15625 C 0.226562 0.289062 0.015625 0.359375 -0.203125 0.359375 C -0.421875 0.359375 -0.597656 0.28125 -0.734375 0.125 C -0.867188 -0.03125 -0.9375 -0.238281 -0.9375 -0.5 C -0.9375 -0.8125 -0.84375 -1.140625 -0.65625 -1.484375 C -0.476562 -1.835938 -0.234375 -2.175781 0.078125 -2.5 C 0.390625 -2.820312 0.753906 -3.109375 1.171875 -3.359375 C 1.179688 -3.367188 1.191406 -3.382812 1.203125 -3.40625 C 1.222656 -3.488281 1.273438 -3.550781 1.359375 -3.59375 C 1.453125 -3.644531 1.539062 -3.660156 1.625 -3.640625 C 1.65625 -3.628906 1.675781 -3.628906 1.6875 -3.640625 C 1.757812 -3.671875 1.835938 -3.703125 1.921875 -3.734375 C 2.003906 -3.765625 2.085938 -3.796875 2.171875 -3.828125 C 2.210938 -3.835938 2.242188 -3.84375 2.265625 -3.84375 C 2.335938 -3.84375 2.398438 -3.816406 2.453125 -3.765625 C 2.503906 -3.710938 2.53125 -3.648438 2.53125 -3.578125 C 2.53125 -3.441406 2.46875 -3.351562 2.34375 -3.3125 C 2.332031 -3.300781 2.316406 -3.296875 2.296875 -3.296875 C 2.285156 -3.296875 2.273438 -3.289062 2.265625 -3.28125 C 2.253906 -3.28125 2.25 -3.28125 2.25 -3.28125 C 2.695312 -3.019531 3.171875 -2.816406 3.671875 -2.671875 C 4.179688 -2.523438 4.691406 -2.4375 5.203125 -2.40625 C 5.710938 -2.382812 6.203125 -2.421875 6.671875 -2.515625 C 7.148438 -2.617188 7.585938 -2.78125 7.984375 -3 C 8.023438 -3.03125 8.070312 -3.046875 8.125 -3.046875 Z M -0.203125 -0.1875 C -0.0664062 -0.1875 0.078125 -0.238281 0.234375 -0.34375 C 0.390625 -0.457031 0.535156 -0.601562 0.671875 -0.78125 C 0.804688 -0.96875 0.921875 -1.175781 1.015625 -1.40625 C 1.117188 -1.632812 1.195312 -1.867188 1.25 -2.109375 C 1.300781 -2.359375 1.3125 -2.585938 1.28125 -2.796875 C 0.945312 -2.585938 0.65625 -2.347656 0.40625 -2.078125 C 0.15625 -1.816406 -0.0351562 -1.546875 -0.171875 -1.265625 C -0.316406 -0.992188 -0.390625 -0.738281 -0.390625 -0.5 C -0.390625 -0.289062 -0.328125 -0.1875 -0.203125 -0.1875 Z M -0.203125 -0.1875 "></path></g></g></g></svg>